<svg xmlns="http://www.w3.org/2000/svg" viewBox="0 0 100 100" width="100" height="100">
<circle cx="50" cy="50" r="24" fill="#FFD166"/>
<rect x="47.0" y="8" width="6" height="12" rx="3.0" fill="#FFD166" transform="rotate(0 50 50)"/>
<rect x="47.0" y="8" width="6" height="12" rx="3.0" fill="#FFD166" transform="rotate(45 50 50)"/>
<rect x="47.0" y="8" width="6" height="12" rx="3.0" fill="#FFD166" transform="rotate(90 50 50)"/>
<rect x="47.0" y="8" width="6" height="12" rx="3.0" fill="#FFD166" transform="rotate(135 50 50)"/>
<rect x="47.0" y="8" width="6" height="12" rx="3.0" fill="#FFD166" transform="rotate(180 50 50)"/>
<rect x="47.0" y="8" width="6" height="12" rx="3.0" fill="#FFD166" transform="rotate(225 50 50)"/>
<rect x="47.0" y="8" width="6" height="12" rx="3.0" fill="#FFD166" transform="rotate(270 50 50)"/>
<rect x="47.0" y="8" width="6" height="12" rx="3.0" fill="#FFD166" transform="rotate(315 50 50)"/>
</svg>
