<svg xmlns="http://www.w3.org/2000/svg" viewBox="0 0 132 246" width="132" height="246">
<path d="M 40 150 L 36 236 L 58 236 L 62 160 Z M 70 160 L 74 236 L 96 236 L 92 150 Z" fill="#6E4C31" stroke="#2B211C" stroke-width="2.5"/><ellipse cx="46" cy="238" rx="14" ry="6" fill="#2B211C"/><ellipse cx="88" cy="238" rx="14" ry="6" fill="#2B211C"/><path d="M 28 78 Q 66 64 104 78 L 108 160 L 24 160 Z" fill="#55704A" stroke="#2B211C" stroke-width="2.5"/><path d="M 24 142 L 108 142 L 108 152 L 24 152 Z" fill="#6E4C31" stroke="#2B211C" stroke-width="2.5"/><circle cx="66" cy="48" r="24" fill="#F2D2B0" stroke="#2B211C" stroke-width="2.5"/><path d="M 44 52 Q 66 96 88 52 Q 80 70 66 68 Q 52 70 44 52 Z" fill="#6B4428" stroke="#2B211C" stroke-width="2.5"/><path d="M 38 34 Q 66 0 94 34 L 98 38 L 34 38 Z" fill="#7C2420" stroke="#2B211C" stroke-width="2.5"/><circle cx="58" cy="46" r="2.5" fill="#2B211C"/><circle cx="74" cy="46" r="2.5" fill="#2B211C"/><circle cx="34" cy="108" r="8" fill="#F2D2B0" stroke="#2B211C" stroke-width="2.5"/>
</svg>
